<?xml version="1.0" encoding="UTF-8"?>
<svg xmlns="http://www.w3.org/2000/svg" xmlns:xlink="http://www.w3.org/1999/xlink" width="24px" height="22px" viewBox="0 0 24 22" version="1.1">
<g id="surface1">
<path style=" stroke:none;fill-rule:nonzero;fill:rgb(51,102,204);fill-opacity:1;" d="M 7.664062 1.117188 L 7.664062 2.210938 L 0 2.210938 L 0 4.417969 L 4.808594 4.429688 C 9.429688 4.441406 10.085938 4.449219 11.082031 4.523438 C 11.507812 4.554688 11.90625 4.609375 11.976562 4.644531 C 12.042969 4.679688 12.035156 4.757812 11.933594 5.066406 C 11.703125 5.769531 10.683594 7.617188 9.828125 8.882812 C 9.226562 9.777344 8.839844 10.207031 8.695312 10.160156 C 8.566406 10.121094 7.964844 9.335938 7.25 8.273438 C 6.667969 7.40625 6.507812 7.191406 6.300781 6.988281 C 5.976562 6.671875 5.824219 6.625 5.144531 6.625 C 4.628906 6.625 4.355469 6.660156 4.183594 6.75 C 4.09375 6.796875 4.097656 6.847656 4.191406 7.035156 C 4.402344 7.460938 4.734375 7.984375 6.019531 9.9375 L 7.132812 11.628906 L 6.5 12.269531 C 3.851562 14.953125 3.171875 15.65625 2.511719 16.402344 C 2.210938 16.746094 1.910156 17.144531 1.910156 17.199219 C 1.914062 17.410156 2.3125 17.882812 3.09375 18.589844 L 3.304688 18.78125 L 6.015625 16.074219 C 7.507812 14.585938 8.734375 13.367188 8.742188 13.367188 C 8.753906 13.367188 9.160156 13.765625 9.652344 14.25 C 11.222656 15.792969 12.015625 16.511719 12.105469 16.476562 C 12.164062 16.453125 12.296875 16.222656 12.402344 15.960938 C 12.460938 15.8125 12.605469 15.371094 12.71875 14.980469 L 12.929688 14.269531 L 12.707031 14.035156 C 12.582031 13.90625 12.003906 13.308594 11.417969 12.714844 L 10.359375 11.628906 L 11.085938 10.550781 C 12.199219 8.890625 12.695312 8.066406 13.273438 6.894531 C 13.546875 6.335938 13.96875 5.316406 14.253906 4.515625 L 14.289062 4.421875 L 17.484375 4.421875 L 17.484375 2.210938 L 9.84375 2.210938 L 9.84375 0.0234375 L 7.664062 0.0234375 Z M 7.664062 1.117188 "/>
<path style=" stroke:none;fill-rule:nonzero;fill:rgb(51, 102, 204);fill-opacity:1;" d="M 17.300781 8.847656 C 17.125 8.875 17.042969 8.910156 16.941406 9.015625 C 16.816406 9.132812 16.757812 9.253906 16.59375 9.710938 C 16.519531 9.917969 16.152344 10.910156 15.769531 11.917969 C 15.390625 12.925781 14.890625 14.269531 14.65625 14.90625 C 14.425781 15.539062 13.867188 17.039062 13.425781 18.234375 C 12.117188 21.746094 12.03125 21.984375 12.035156 21.988281 C 12.046875 22 13.40625 21.898438 13.617188 21.871094 C 13.917969 21.828125 14.070312 21.765625 14.214844 21.617188 C 14.386719 21.445312 14.484375 21.226562 14.824219 20.300781 C 14.976562 19.875 15.175781 19.332031 15.257812 19.101562 L 15.414062 18.675781 L 18.050781 18.675781 C 20.539062 18.675781 20.6875 18.679688 20.707031 18.71875 C 20.714844 18.742188 20.859375 19.171875 21.03125 19.671875 C 21.601562 21.363281 21.753906 21.664062 22.128906 21.851562 C 22.269531 21.917969 22.320312 21.929688 22.539062 21.941406 C 22.78125 21.949219 23.867188 21.863281 23.953125 21.828125 C 23.988281 21.8125 23.628906 20.828125 21.59375 15.378906 L 19.191406 8.949219 L 19.09375 8.933594 C 18.941406 8.914062 17.609375 8.824219 17.511719 8.824219 C 17.464844 8.828125 17.371094 8.835938 17.300781 8.847656 Z M 18.171875 12.277344 C 18.367188 12.625 18.785156 13.640625 19.125 14.601562 C 19.335938 15.199219 19.589844 15.953125 19.652344 16.164062 C 19.6875 16.292969 19.683594 16.296875 19.632812 16.328125 C 19.332031 16.519531 16.953125 16.53125 16.472656 16.34375 C 16.40625 16.316406 16.402344 16.3125 16.414062 16.210938 C 16.46875 15.820312 17.625 12.820312 17.945312 12.242188 C 18.042969 12.0625 18.050781 12.066406 18.171875 12.277344 Z M 18.171875 12.277344 "/>
</g>
</svg>
