<?xml version="1.0" standalone="no"?>
<!DOCTYPE svg PUBLIC "-//W3C//DTD SVG 20010904//EN"
 "http://www.w3.org/TR/2001/REC-SVG-20010904/DTD/svg10.dtd">
<svg version="1.0" xmlns="http://www.w3.org/2000/svg"
 width="980.000000pt" height="895.000000pt" viewBox="0 0 980.000000 895.000000"
 preserveAspectRatio="xMidYMid meet">

<g transform="translate(0.000000,895.000000) scale(0.100000,-0.100000)"
fill="#000000" stroke="none">
<path d="M3130 8495 l0 -445 -1565 0 -1565 0 0 -449 0 -449 1963 -5 c1887 -4
2155 -8 2562 -37 174 -13 337 -35 365 -50 28 -15 25 -46 -17 -172 -95 -286
-511 -1037 -860 -1553 -246 -363 -403 -539 -463 -520 -52 17 -298 336 -589
768 -238 353 -303 441 -388 524 -132 128 -194 148 -473 148 -210 0 -321 -15
-392 -51 -36 -19 -35 -40 3 -117 87 -173 222 -386 747 -1180 l455 -689 -259
-261 c-1082 -1092 -1359 -1378 -1628 -1682 -123 -139 -246 -301 -246 -323 1
-86 165 -278 483 -566 l87 -78 1107 1101 c608 606 1110 1101 1113 1101 4 0
171 -161 372 -358 641 -628 964 -921 1001 -906 24 9 78 103 122 210 24 60 82
239 129 398 l85 290 -91 95 c-50 53 -286 295 -525 537 l-433 442 296 438 c456
677 658 1012 894 1489 112 227 284 641 401 968 l13 37 653 0 653 0 0 450 0
450 -1560 0 -1560 0 0 445 0 445 -445 0 -445 0 0 -445z"/>
<path d="M7065 5350 c-72 -11 -105 -26 -148 -68 -50 -48 -75 -97 -141 -283
-30 -85 -181 -489 -336 -899 -155 -410 -360 -956 -455 -1215 -95 -258 -322
-868 -503 -1355 -534 -1429 -570 -1525 -567 -1528 4 -4 559 38 645 49 123 17
185 43 245 103 69 69 110 158 248 536 63 173 143 393 178 488 l63 172 1077 0
c1016 0 1077 -1 1084 -17 3 -10 63 -184 132 -388 233 -688 296 -811 449 -886
57 -28 78 -33 167 -37 99 -4 542 31 578 46 14 6 -133 407 -964 2624 l-980
2617 -41 6 c-62 8 -606 45 -646 44 -19 -1 -57 -5 -85 -9z m355 -1396 c80 -141
250 -555 389 -945 86 -243 190 -551 215 -637 15 -51 14 -53 -7 -66 -123 -78
-1094 -83 -1291 -7 -27 11 -28 14 -23 54 22 159 494 1381 624 1615 40 73 44
72 93 -14z"/>
</g>
</svg>
